<svg xmlns="http://www.w3.org/2000/svg" viewBox="0 0 100.57 100.57"><defs><style>.cls-1{fill:#1d1d1b;}.cls-2{fill:none;stroke:#fff;stroke-linecap:round;stroke-linejoin:round;stroke-width:2px;}</style></defs><g id="Layer_2" data-name="Layer 2"><g id="Layer_1-2" data-name="Layer 1"><rect class="cls-1" width="100.57" height="100.57"/><path class="cls-2" d="M70.81,23.46c-1.56-2.58-3.28-4.65-6.87-4.29a5.18,5.18,0,0,0-3,1.34,19.77,19.77,0,0,0-5.91,6.41,28.94,28.94,0,0,0-1.65,3,26.5,26.5,0,0,0-3.18,11.77c0,6.47-.24,12.94.06,19.39.35,7.5,3.47,14,8.29,19.69A3.85,3.85,0,0,0,61.87,82c2.8,0,5.58,0,8.38,0,1.64,0,3.17.32,4.83-1.12,2-1.73,2.43-3.92,3.16-6.08,2.28-6.73.8-13.72,1.23-20.58.1-1.58-.52-2.22-2.1-2.1-4.89.39-9.71-1-14.61-.58"/><path class="cls-2" d="M21,68.21a12.39,12.39,0,0,0,1.76,5.12,8.85,8.85,0,0,0,7.18,5c3.67.28,7.41.64,11-.56a10.16,10.16,0,0,0,6.84-9.26c0-8.45.3-16.92-.08-25.35-.31-6.79.32-13.53.2-20.3,0-2.55-1.36-4-3.09-4-4.27,0-8.62-1-12.85,1C28.28,21.59,26.27,24,25,28.17c-1.45,4.6-1.77,9.12-2.28,13.78-.48,4.36,1.61,7,4.62,9.22,3.26,2.41,11,2.68,13.23-1,1.42-2.35,3.24-4.5,4.35-7.06.48-1.12.88-2.34,2.07-3"/></g></g></svg>