<svg xmlns="http://www.w3.org/2000/svg" viewBox="0 0 100.57 100.57"><defs><style>.cls-1{fill:#fff;}.cls-2{fill:none;stroke:#1d1d1b;stroke-linecap:round;stroke-linejoin:round;stroke-width:2px;}</style></defs><g id="Layer_2" data-name="Layer 2"><g id="Layer_1-2" data-name="Layer 1"><rect class="cls-1" width="100.57" height="100.57"/><path class="cls-2" d="M70.9,23.45c-1.56-2.59-3.28-4.65-6.87-4.3a5.18,5.18,0,0,0-3,1.34,19.77,19.77,0,0,0-5.91,6.41,30,30,0,0,0-1.65,3,26.71,26.71,0,0,0-3.18,11.78c0,6.46-.24,12.93.06,19.39.35,7.49,3.47,14,8.29,19.68A3.86,3.86,0,0,0,62,82c2.8,0,5.58,0,8.38,0,1.64,0,3.17.33,4.83-1.12,2-1.73,2.43-3.92,3.16-6.08,2.28-6.73.8-13.71,1.23-20.57.1-1.59-.52-2.23-2.1-2.1-4.89.38-9.71-1-14.61-.59"/><path class="cls-2" d="M21.11,68.2a12.34,12.34,0,0,0,1.76,5.11c1.1,1.93,3.07,4.68,7.18,5,3.67.29,7.41.65,11-.56a10.15,10.15,0,0,0,6.84-9.25c0-8.46.31-16.92-.08-25.36-.31-6.78.32-13.52.21-20.29-.05-2.56-1.37-4-3.1-4-4.27,0-8.62-1-12.85,1-3.74,1.78-5.75,4.22-7,8.35-1.45,4.6-1.77,9.12-2.28,13.78-.48,4.36,1.61,7,4.62,9.22,3.26,2.42,11,2.69,13.23-.95,1.42-2.35,3.24-4.49,4.35-7.06.48-1.11.88-2.34,2.07-3"/></g></g></svg>